<svg xmlns="http://www.w3.org/2000/svg" viewBox="0 0 87.651 87.651">
  <defs>
    <style>
      .cls-1 {
        fill: #fff;
      }

      .cls-2 {
        fill: #cbced9;
      }
    </style>
  </defs>
  <g id="Group_3512" data-name="Group 3512" transform="translate(2806 -11508.326)">
    <g id="User_Menu" data-name="User Menu" transform="translate(-2806 11508.326)">
      <rect id="Avatar" class="cls-1" width="87.651" height="87.651" rx="43.826" transform="translate(0 0)"/>
    </g>
    <path id="Intersection_1" data-name="Intersection 1" class="cls-2" d="M5.422,57.689c5.739-3.439,13.44-4.337,15.117-8.843a63.312,63.312,0,0,0,.139-6.441c-1.12-.586-3.2-4.324-3.538-7.478-.878-.072-2.261-.929-2.669-4.312a3.164,3.164,0,0,1,1.18-3.159C12.682,16.026,14.316,6.046,27.863,5.8c3.386,0,5.991.9,7.008,2.691,9.887,1.373,6.919,14.669,5.49,18.968a3.157,3.157,0,0,1,1.18,3.159c-.406,3.383-1.79,4.24-2.668,4.312-.338,3.156-2.339,6.892-3.456,7.478a63.035,63.035,0,0,0,.138,6.441c1.6,4.3,8.659,5.315,14.268,8.387a32.712,32.712,0,0,1-44.4.456Z" transform="translate(-2789.422 11521.221)"/>
  </g>
</svg>
